<svg xmlns="http://www.w3.org/2000/svg" data-name="icon/filled/editor/delete"><path fill="none" d="M0 0h24v24H0z" data-name="icon/filled/editor/delete (clip mask)"/><g clip-path="url(#delete_svg__clip-path)" data-name="icon/filled/editor/delete"><g data-name="icon/filled/editor/delete (clip group)"><path fill="none" d="M0 0h24v24H0z" data-name="icon/filled/editor/delete (style)"/><path d="M17.32 21.375H6.68a1.5 1.5 0 0 1-1.5-1.429L4.6 7.688H3.187A.187.187 0 0 1 3 7.5v-.75A.751.751 0 0 1 3.75 6h3V4.125a1.5 1.5 0 0 1 1.5-1.5h7.5a1.5 1.5 0 0 1 1.5 1.5V6h3a.751.751 0 0 1 .75.75v.751a.187.187 0 0 1-.187.187H19.4l-.582 12.257a1.5 1.5 0 0 1-1.498 1.43ZM8.438 4.312V6h7.124V4.312Z"/></g></g></svg>