<svg xmlns="http://www.w3.org/2000/svg" width="21" height="21" data-name="icon/filled/editor/edit"><defs><clipPath id="edit_svg__a"><path fill="none" d="M0 0h21v21H0z" data-name="icon/filled/editor/edit (clip mask)"/></clipPath></defs><path fill="none" d="M0 0h21v21H0z" data-name="icon/filled/editor/edit (clip mask)"/><g clip-path="url(#edit_svg__a)" data-name="icon/filled/editor/edit"><g data-name="icon/filled/editor/edit (clip group)"><path fill="none" d="M0 0h21v21H0z" data-name="icon/filled/editor/edit (style)"/><path fill="#797979" d="M4.63 17.063a.834.834 0 0 0 .123-.01l3.449-.6a.2.2 0 0 0 .109-.057l8.693-8.693a.2.2 0 0 0 0-.289l-3.408-3.417a.208.208 0 0 0-.291 0l-8.694 8.694a.209.209 0 0 0-.057.109l-.6 3.449a.687.687 0 0 0 .193.611.7.7 0 0 0 .488.2Z"/></g></g></svg>