<svg xmlns="http://www.w3.org/2000/svg" width="24" height="24"><defs><clipPath id="left-menu-icon_svg__a"><path fill="#fff" d="M0 0h14v14H0z" data-name="Rectangle 759"/></clipPath></defs><g data-name="Group 693"><path fill="none" d="M0 0h24v24H0z" data-name="Rectangle 757"/><g data-name="Group 633"><g clip-path="url(#left-menu-icon_svg__a)" data-name="Group 632" transform="translate(5 5)"><path fill="#fff" d="M6.222 6.222H0V.778A.778.778 0 0 1 .778 0h5.444ZM14 .778A.778.778 0 0 0 13.222 0H7.778v6.222H14ZM.778 14h5.444V7.778H0v5.444A.778.778 0 0 0 .778 14M14 13.222V7.778H7.778V14h5.444a.778.778 0 0 0 .778-.778" data-name="Path 219"/></g></g></g></svg>