<svg xmlns="http://www.w3.org/2000/svg" width="14" height="14" data-name="icon/outlined/suggested/close"><defs><clipPath id="x_svg__a"><path fill="none" d="M0 0h14v14H0z" data-name="icon/outlined/suggested/close (clip mask)"/></clipPath></defs><path fill="none" d="M0 0h14v14H0z" data-name="icon/outlined/suggested/close (clip mask)"/><g clip-path="url(#x_svg__a)" data-name="icon/outlined/suggested/close"><g data-name="icon/outlined/suggested/close (clip group)"><path fill="none" d="M0 0h14v14H0z" data-name="icon/outlined/suggested/close (style)"/><path fill="#d895ff" d="m7.708 7 3.589-4.278a.109.109 0 0 0-.083-.179h-1.091a.223.223 0 0 0-.168.078L6.995 6.15l-2.96-3.529a.218.218 0 0 0-.169-.078H2.775a.109.109 0 0 0-.083.179L6.281 7l-3.589 4.278a.109.109 0 0 0 .083.179h1.091a.223.223 0 0 0 .168-.078l2.96-3.529 2.96 3.529a.219.219 0 0 0 .168.078h1.092a.109.109 0 0 0 .083-.179Z"/></g></g></svg>